#tb 0: 1/25
0,          0,          0,        1,   149760, 0x8edb27d7
0,          1,          1,        1,   149760, 0x16eb25a8
0,          2,          2,        1,   149760, 0xcfff29c8
0,          3,          3,        1,   149760, 0x4c9721e9
0,          4,          4,        1,   149760, 0xee52e28d
0,          5,          5,        1,   149760, 0xc25d9657
0,          6,          6,        1,   149760, 0x0f644c82
0,          7,          7,        1,   149760, 0x6f57aea1
